PathFileType	4	(X/Y/Z)	Walk3.trc
DataRate	CameraRate	NumFrames	NumMarkers	Units	OrigDataRate	OrigDataStartFrame	OrigNumFrames
200.000000	200.000000	7	56	mm	200.000000	655	821
Frame#	Times		LWRR		RLFC		RBHD		RTH3		C7		RMFC		RToe		LElbow		RTB2		RMT1		RMT5		RTB3		LMT5		LWRU		LUA1		LCAR		RCAL		LACR1		RMMAL		RFA1		LASI		LLFC		LTH3		LTB2		LPSI		LCAL		LMMAL		LToe		RPSI		RLMAL		LLMAL		RUA1		LTH2		RFHD		RWRU		RBack		LBHD		LTH4		LMFC		LTB1		RCAR		LTH1		LTB3		RTH2		LTB4		LMT1		RElbow		RTH1		RTH4		RTB4		LFHD		RASI		RACR1		RWRR		T10		RTB1
			X1	Y1	Z1	X2	Y2	Z2	X3	Y3	Z3	X4	Y4	Z4	X5	Y5	Z5	X6	Y6	Z6	X7	Y7	Z7	X8	Y8	Z8	X9	Y9	Z9	X10	Y10	Z10	X11	Y11	Z11	X12	Y12	Z12	X13	Y13	Z13	X14	Y14	Z14	X15	Y15	Z15	X16	Y16	Z16	X17	Y17	Z17	X18	Y18	Z18	X19	Y19	Z19	X20	Y20	Z20	X21	Y21	Z21	X22	Y22	Z22	X23	Y23	Z23	X24	Y24	Z24	X25	Y25	Z25	X26	Y26	Z26	X27	Y27	Z27	X28	Y28	Z28	X29	Y29	Z29	X30	Y30	Z30	X31	Y31	Z31	X32	Y32	Z32	X33	Y33	Z33	X34	Y34	Z34	X35	Y35	Z35	X36	Y36	Z36	X37	Y37	Z37	X38	Y38	Z38	X39	Y39	Z39	X40	Y40	Z40	X41	Y41	Z41	X42	Y42	Z42	X43	Y43	Z43	X44	Y44	Z44	X45	Y45	Z45	X46	Y46	Z46	X47	Y47	Z47	X48	Y48	Z48	X49	Y49	Z49	X50	Y50	Z50	X51	Y51	Z51	X52	Y52	Z52	X53	Y53	Z53	X54	Y54	Z54	X55	Y55	Z55	X56	Y56	Z56

655	3.275	35.804	830.06	-254.94	146	523.92	147	37.448	1617.1	-18.054	139.59	570.95	152.89	12.038	1479.9	43.565	122.33	493.49	23.552	296.2	27.453	99.659	-14.16	1107.2	-257.03	156.57	284.98	128.76	243.4	29.076	57.758	199.8	23.817	136.52	148.11	199.12	51.975	-70.347	73.63	-114.87	108.74	812.31	-245.8	42.813	1236	-218.19	-5.2887	965.37	-261.69	33.369	32.872	37.841	94.311	1430.4	-134.72	116.52	70.925	22.315	81.996	917.35	307.27	121.38	1041.2	-135.9	154.83	520.44	-121.86	160.57	576.81	-126.22	64.401	335.34	-119.21	-66.583	1037.5	-3.3596	-206.56	198.06	-73.895	-117.32	179.16	-32.987	-3.2029	68.151	-53.282	-63.696	1041.3	66.068	85.878	67.061	99.249	-136.23	180.88	-116.41	110.37	1237.8	268.81	201.81	683.97	-100.24	213.57	1657.1	11.787	179.41	831.09	254.83	6.4991	1362.2	192.21	41.725	1600.9	118.04	140.47	669.21	-138.61	151.33	499.48	8.6043	132.36	391.12	-41.469	172.09	781.46	300.39	119.8	759.86	-148.04	-5.399	269.75	-52.092	189.02	678.64	135.27	63.412	332.47	-46.673	-52.862	68.136	-35.856	45.739	1074.9	308.13	110.58	753.84	195.84	124.9	660.8	177.24	165.15	286.32	54.472	215.33	1649.9	86.339	134.82	997.54	174.79	133.78	1422.7	188.71	103.76	797.7	272.32	-54.406	1221.7	39.536	180.52	382.73	61.71
656	3.28	36.707	830.54	-254.82	147.83	523.81	147.06	42.479	1617.7	-18.239	141.74	570.88	152.96	17.011	1480.6	43.614	124.02	493.35	23.574	296.27	27.292	99.63	-10.891	1108.1	-256.47	157.41	284.78	128.76	243.41	28.99	57.751	199.78	23.797	136.56	148.55	198.92	51.953	-54.36	72.593	-115.11	109.49	812.1	-245.79	46.763	1236.6	-217.88	-3.1923	966.25	-261.32	33.366	32.882	37.791	99.141	1430.9	-134.68	116.58	70.88	22.244	88.09	918.34	307.66	126.17	1041.7	-135.51	163.54	522.3	-121.77	168.52	578.47	-126.1	75.671	335.82	-119.19	-61.9	1038.3	-3.1907	-193.24	193.81	-73.698	-103.55	176.76	-32.907	13.331	67.926	-53.662	-59.128	1042	66.233	85.946	67.103	99.17	-122.52	178.26	-116.3	115.54	1238.8	269.1	208.94	686.05	-100.57	218.6	1657.6	11.624	185.96	832.6	255.2	11.504	1363.1	192.44	46.687	1601.6	117.87	147.58	670.66	-138.63	159.9	500.92	8.4245	142.69	392.87	-41.626	178.9	782.99	300.74	126.08	761.13	-148.11	6.8545	269.19	-52.155	191.6	678.31	135.36	74.741	332.91	-46.631	-36.448	67.22	-36.194	51.12	1075.7	308.61	113.8	753.91	196.04	128.1	660.85	177.21	165.89	286.11	54.482	220.34	1650.5	86.188	139.2	997.94	175.32	138.8	1423.6	188.74	110.42	798.6	272.73	-49.589	1222.4	39.812	181.6	382.44	61.762
657	3.285	37.635	831.01	-254.7	149.63	523.7	147.12	47.509	1618.3	-18.444	143.86	570.81	153.02	21.972	1481.2	43.646	125.67	493.21	23.587	296.34	27.135	99.604	-7.6019	1108.9	-255.91	158.25	284.58	128.77	243.42	28.908	57.751	199.76	23.769	136.6	148.96	198.72	51.94	-38.175	71.463	-115.37	110.27	811.89	-245.78	50.73	1237.2	-217.58	-1.0725	967.11	-260.95	33.358	32.891	37.748	103.97	1431.4	-134.64	116.62	70.843	22.185	94.163	919.32	308.03	130.92	1042.2	-135.12	172.13	524.14	-121.68	176.39	580.13	-125.97	86.935	336.26	-119.15	-57.217	1039	-3.0229	-179.71	189.31	-73.465	-89.58	174.17	-32.816	30.046	67.676	-54.076	-54.57	1042.7	66.388	86.009	67.153	99.102	-108.63	175.45	-116.18	120.71	1239.7	269.38	215.96	688.12	-100.85	223.64	1658.1	11.431	192.49	834.11	255.56	16.511	1364	192.65	51.651	1602.3	117.68	154.63	672.11	-138.67	168.27	502.34	8.2244	153.01	394.57	-41.77	185.68	784.51	301.06	132.31	762.4	-148.2	19.215	268.49	-52.224	194.12	677.96	135.47	86.08	333.26	-46.58	-19.826	66.201	-36.556	56.492	1076.5	309.09	117	753.98	196.25	131.27	660.88	177.17	166.62	285.9	54.504	225.35	1651.1	86.012	143.59	998.34	175.81	143.82	1424.4	188.75	117.06	799.5	273.13	-44.769	1223	40.084	182.69	382.14	61.802
658	3.29	38.592	831.49	-254.59	151.42	523.58	147.18	52.537	1618.8	-18.667	145.96	570.74	153.1	26.923	1481.9	43.662	127.3	493.07	23.593	296.39	26.979	99.581	-4.2926	1109.8	-255.37	159.06	284.39	128.79	243.42	28.83	57.755	199.72	23.732	136.66	149.35	198.53	51.934	-21.8	70.254	-115.66	111.06	811.69	-245.77	54.712	1237.7	-217.29	1.072	967.97	-260.59	33.348	32.899	37.711	108.8	1431.8	-134.62	116.66	70.814	22.137	100.22	920.3	308.41	135.62	1042.7	-134.75	180.59	525.96	-121.57	184.16	581.8	-125.84	98.188	336.64	-119.1	-52.531	1039.7	-2.8557	-165.97	184.59	-73.203	-75.429	171.42	-32.719	46.931	67.416	-54.521	-50.018	1043.3	66.531	86.07	67.212	99.044	-94.572	172.48	-116.05	125.88	1240.6	269.66	222.87	690.17	-101.09	228.68	1658.6	11.21	198.99	835.62	255.91	21.517	1364.9	192.86	56.619	1603	117.48	161.61	673.56	-138.7	176.48	503.74	8.0209	163.29	396.21	-41.89	192.43	786.02	301.37	138.48	763.64	-148.29	31.676	267.67	-52.291	196.59	677.61	135.6	97.423	333.52	-46.522	-3.0057	65.098	-36.939	61.858	1077.4	309.57	120.17	754.05	196.45	134.38	660.91	177.15	167.33	285.69	54.535	230.37	1651.7	85.811	147.99	998.74	176.24	148.83	1425.2	188.76	123.69	800.4	273.51	-39.947	1223.7	40.351	183.8	381.85	61.828
659	3.295	39.581	831.96	-254.47	153.19	523.47	147.26	57.565	1619.3	-18.906	148.04	570.66	153.17	31.868	1482.4	43.661	128.91	492.94	23.594	296.44	26.825	99.561	-0.9627	1110.6	-254.83	159.87	284.2	128.81	243.41	28.756	57.763	199.66	23.684	136.72	149.73	198.34	51.936	-5.2472	68.98	-115.96	111.87	811.48	-245.75	58.707	1238.3	-217.01	3.2423	968.8	-260.22	33.335	32.906	37.679	113.64	1432.2	-134.61	116.69	70.792	22.1	106.25	921.27	308.77	140.3	1043.1	-134.39	188.93	527.75	-121.46	191.84	583.46	-125.71	109.43	336.98	-119.05	-47.84	1040.4	-2.6897	-152	179.66	-72.919	-61.099	168.51	-32.615	63.976	67.155	-54.996	-45.471	1044	66.664	86.13	67.282	98.994	-80.339	169.34	-115.92	131.05	1241.5	269.94	229.66	692.2	-101.28	233.73	1659	10.964	205.48	837.12	256.25	26.522	1365.7	193.05	61.591	1603.7	117.26	168.51	674.99	-138.74	184.55	505.14	7.8302	173.52	397.79	-41.982	199.17	787.52	301.67	144.57	764.87	-148.38	44.23	266.72	-52.351	199.03	677.25	135.76	108.77	333.69	-46.458	14.004	63.928	-37.339	67.223	1078.2	310.07	123.33	754.12	196.65	137.43	660.94	177.13	168.04	285.49	54.574	235.39	1652.2	85.588	152.41	999.15	176.62	153.85	1426	188.76	130.31	801.28	273.89	-35.121	1224.3	40.609	184.94	381.57	61.844
660	3.3	40.605	832.43	-254.36	154.95	523.35	147.34	62.59	1619.8	-19.16	150.11	570.58	153.26	36.808	1483	43.644	130.51	492.82	23.595	296.48	26.671	99.544	2.3875	1111.4	-254.31	160.68	284.01	128.84	243.4	28.688	57.774	199.6	23.626	136.8	150.1	198.16	51.945	11.476	67.653	-116.27	112.72	811.28	-245.73	62.714	1238.8	-216.74	5.4388	969.61	-259.86	33.32	32.913	37.654	118.48	1432.5	-134.61	116.71	70.777	22.073	112.28	922.23	309.13	144.93	1043.5	-134.04	197.14	529.5	-121.34	199.42	585.11	-125.58	120.64	337.26	-118.99	-43.144	1041.1	-2.527	-137.83	174.54	-72.618	-46.593	165.46	-32.507	81.171	66.903	-55.494	-40.925	1044.7	66.787	86.188	67.365	98.949	-65.935	166.05	-115.77	136.22	1242.3	270.21	236.34	694.2	-101.42	238.78	1659.4	10.695	211.94	838.61	256.57	31.523	1366.5	193.24	66.568	1604.4	117.03	175.32	676.41	-138.77	192.5	506.54	7.6647	183.69	399.3	-42.043	205.88	788.99	301.94	150.6	766.07	-148.48	56.868	265.66	-52.397	201.44	676.87	135.93	120.11	333.78	-46.392	31.195	62.709	-37.755	72.589	1079	310.57	126.47	754.2	196.83	140.41	660.95	177.14	168.74	285.29	54.62	240.42	1652.7	85.343	156.83	999.56	176.94	158.85	1426.8	188.75	136.91	802.17	274.25	-30.292	1224.9	40.857	186.1	381.29	61.851
661	3.305	41.665	832.89	-254.26	156.7	523.23	147.42	67.613	1620.3	-19.427	152.17	570.49	153.34	41.748	1483.5	43.611	132.1	492.7	23.6	296.51	26.515	99.532	5.7576	1112.2	-253.79	161.48	283.82	128.88	243.38	28.626	57.786	199.53	23.557	136.89	150.48	197.99	51.96	28.361	66.285	-116.6	113.58	811.07	-245.7	66.732	1239.3	-216.49	7.6616	970.4	-259.5	33.304	32.92	37.633	123.33	1432.8	-134.62	116.72	70.768	22.055	118.3	923.17	309.49	149.54	1043.9	-133.71	205.21	531.22	-121.21	206.9	586.74	-125.45	131.84	337.48	-118.92	-38.44	1041.7	-2.37	-123.44	169.26	-72.306	-31.916	162.3	-32.395	98.506	66.668	-56.012	-36.379	1045.3	66.901	86.246	67.459	98.905	-51.363	162.63	-115.62	141.39	1243.2	270.48	242.9	696.17	-101.53	243.83	1659.8	10.403	218.38	840.07	256.87	36.519	1367.3	193.4	71.552	1605.1	116.78	182.05	677.8	-138.81	200.34	507.93	7.5325	193.8	400.75	-42.072	212.58	790.44	302.19	156.55	767.25	-148.58	69.582	264.51	-52.425	203.86	676.49	136.1	131.44	333.79	-46.323	48.556	61.46	-38.183	77.958	1079.8	311.08	129.59	754.26	197.01	143.31	660.95	177.15	169.46	285.09	54.669	245.46	1653.2	85.078	161.26	999.99	177.21	163.86	1427.6	188.72	143.51	803.06	274.59	-25.46	1225.5	41.093	187.3	381.01	61.856
